<svg width="81" height="20" viewBox="0 0 81 20" fill="none" xmlns="http://www.w3.org/2000/svg">
<g clip-path="url(#clip0_1_2905)">
<path d="M80.3931 6.777C80.3931 6.777 80.5171 0 72.3611 0C67.5411 0 63.7521 3.76 63.7521 10C63.7521 17.107 68.2011 20 72.5671 20C78.6221 20 80.187 14.256 80.187 14.256H79.4461C79.4461 14.256 77.7561 16.86 74.0091 16.86C70.9191 16.86 68.159 13.843 68.159 9.339C68.159 3.636 70.3011 1.653 72.5261 1.653C77.1801 1.653 76.3981 6.777 76.3981 6.777H80.3931ZM38.7501 7.025C38.7501 4.463 38.1321 0.041 31.4181 0.041C23.6741 0.041 23.5911 5.165 23.5911 5.165L27.9161 5.124C27.9161 5.124 27.1341 1.529 30.8821 1.529C33.4771 1.529 34.6721 3.595 34.6721 7.645V8.885C33.4771 8.14 31.9521 7.645 30.1821 7.645C25.4861 7.645 22.5201 10.207 22.5201 13.843C22.5201 17.603 25.3211 19.959 29.0701 19.959C32.3651 19.959 34.3001 17.645 35.3301 15.744H35.5361C35.5361 17.769 35.9901 19.546 35.9901 19.546H39.3671C39.3671 19.546 38.7491 17.727 38.7491 14.628L38.7501 7.025ZM30.3881 17.149C28.1631 17.149 26.4331 15.744 26.4331 13.554C26.4331 11.322 28.1231 9.669 30.8411 9.669C32.7771 9.669 34.0131 10.289 35.0421 11.281L35.0831 13.801C34.3011 15.083 32.7361 17.149 30.3881 17.149ZM0.607056 0.496C1.14206 10.041 0.607056 19.586 0.607056 19.586H4.85006C4.85006 19.586 4.31406 10.041 4.85006 0.496H0.607056ZM56.6261 0.496C57.1621 10.041 56.6261 19.586 56.6261 19.586H60.8691C60.8691 19.586 60.3331 10.041 60.8691 0.496H56.6261ZM21.6961 2.975L21.2841 0.495H7.15606L6.74406 2.975C7.89706 2.769 10.4101 2.645 12.1811 2.562C12.5521 11.364 12.0991 19.587 12.0991 19.587H16.3411C16.3411 19.587 15.8881 11.364 16.2591 2.562C18.0301 2.645 20.5431 2.81 21.6961 2.975ZM46.9461 17.603C46.5761 8.76 47.0301 0.496 47.0301 0.496H42.7871C42.7871 0.496 43.3221 10.041 42.7871 19.586H54.1141L54.5261 15.95H54.2381C51.8481 17.52 47.9361 17.603 46.9481 17.603H46.9461Z" fill="#171722"/>
</g>
<defs>
<clipPath id="clip0_1_2905">
<rect width="81" height="20" fill="white"/>
</clipPath>
</defs>
</svg>
