<svg width="16" height="16" viewBox="0 0 16 16" fill="none" xmlns="http://www.w3.org/2000/svg">
<g clip-path="url(#clip0_1_2907)">
<g filter="url(#filter0_d_1_2907)">
<path d="M10.5714 5.42833L14.0001 1.99966M6.90941 14.0003C6.25994 14.0079 5.61542 13.8865 5.0132 13.6432C4.41097 13.3999 3.86301 13.0395 3.40107 12.5829C2.93912 12.1263 2.57237 11.5826 2.32206 10.9833C2.07176 10.3839 1.94287 9.74085 1.94287 9.09133C1.94287 8.44181 2.07176 7.79875 2.32206 7.1994C2.57237 6.60006 2.93912 6.05633 3.40107 5.59974C3.86301 5.14315 4.41097 4.78276 5.0132 4.53945C5.61542 4.29615 6.25994 4.17476 6.90941 4.18233C8.20145 4.19739 9.43546 4.72121 10.3438 5.64019C11.2521 6.55917 11.7615 7.7992 11.7615 9.09133C11.7615 10.3835 11.2521 11.6235 10.3438 12.5425C9.43546 13.4614 8.20145 13.9853 6.90941 14.0003Z" stroke="black" shape-rendering="crispEdges"/>
</g>
</g>
<defs>
<filter id="filter0_d_1_2907" x="-2.55713" y="1.64611" width="20.9106" height="20.8546" filterUnits="userSpaceOnUse" color-interpolation-filters="sRGB">
<feFlood flood-opacity="0" result="BackgroundImageFix"/>
<feColorMatrix in="SourceAlpha" type="matrix" values="0 0 0 0 0 0 0 0 0 0 0 0 0 0 0 0 0 0 127 0" result="hardAlpha"/>
<feOffset dy="4"/>
<feGaussianBlur stdDeviation="2"/>
<feComposite in2="hardAlpha" operator="out"/>
<feColorMatrix type="matrix" values="0 0 0 0 0 0 0 0 0 0 0 0 0 0 0 0 0 0 0.25 0"/>
<feBlend mode="normal" in2="BackgroundImageFix" result="effect1_dropShadow_1_2907"/>
<feBlend mode="normal" in="SourceGraphic" in2="effect1_dropShadow_1_2907" result="shape"/>
</filter>
<clipPath id="clip0_1_2907">
<rect width="16" height="16" fill="white"/>
</clipPath>
</defs>
</svg>
